<?xml version="1.0" standalone="no"?>
<!DOCTYPE svg PUBLIC "-//W3C//DTD SVG 20010904//EN"
 "http://www.w3.org/TR/2001/REC-SVG-20010904/DTD/svg10.dtd">
<svg version="1.0" xmlns="http://www.w3.org/2000/svg"
 width="500.000000pt" height="500.000000pt" viewBox="0 0 500.000000 500.000000"
 preserveAspectRatio="xMidYMid meet">
<metadata>
Created by potrace 1.11, written by Peter Selinger 2001-2013
</metadata>
<g transform="translate(0.000000,500.000000) scale(0.100000,-0.100000)"
fill="#000000" stroke="none">
<path d="M0 2500 l0 -2500 2500 0 2500 0 0 2500 0 2500 -2500 0 -2500 0 0
-2500z m4780 0 l0 -2280 -2280 0 -2280 0 0 2280 0 2280 2280 0 2280 0 0 -2280z"/>
<path d="M1660 3765 l0 -105 323 -2 322 -3 3 -923 2 -923 118 3 117 3 3 923 2
922 325 0 325 0 0 105 0 105 -770 0 -770 0 0 -105z"/>
</g>
</svg>
